<?xml version="1.0" encoding="iso-8859-1"?>
<!-- Generator: Adobe Illustrator 19.0.0, SVG Export Plug-In . SVG Version: 6.00 Build 0)  -->
<svg version="1.1" id="Capa_1" xmlns="http://www.w3.org/2000/svg" xmlns:xlink="http://www.w3.org/1999/xlink" x="0px" y="0px"
	 viewBox="0 0 512 512" style="enable-background:new 0 0 512 512;" xml:space="preserve" fill="#0064b0">
<g>
	<g>
		<path d="M281.644,3.116c-3.837-3.973-10.174-4.076-14.147-0.241c-3.973,3.837-4.084,10.167-0.248,14.141
			c1.962,2.033,4.577,3.054,7.195,3.054c2.5,0,5.004-0.933,6.945-2.806l0.014-0.014C285.376,13.413,285.48,7.09,281.644,3.116z"/>
	</g>
</g>
<g>
	<g>
		<path d="M307.071,341.854c-3.905-3.905-10.243-3.897-14.149,0.007c-3.905,3.905-3.905,10.237,0,14.143
			c1.953,1.952,4.512,2.929,7.071,2.929c2.559,0,5.119-0.977,7.071-2.929l0.014-0.014
			C310.983,352.085,310.976,345.76,307.071,341.854z"/>
	</g>
</g>
<g>
	<g>
		<path d="M381.071,341.855c-3.905-3.905-10.243-3.897-14.149,0.007c-3.905,3.905-3.905,10.237,0,14.143
			c1.953,1.952,4.512,2.929,7.071,2.929s5.119-0.977,7.071-2.929l0.014-0.014C384.983,352.085,384.976,345.76,381.071,341.855z"/>
	</g>
</g>
<g>
	<g>
		<path d="M455.071,341.855c-3.905-3.905-10.243-3.897-14.149,0.007c-3.905,3.905-3.905,10.237,0,14.143
			c1.953,1.952,4.512,2.929,7.071,2.929s5.119-0.977,7.071-2.929l0.014-0.014C458.983,352.085,458.976,345.76,455.071,341.855z"/>
	</g>
</g>
<g>
	<g>
		<path d="M226.248,268.296l-0.49-0.504c-3.874-3.937-10.205-3.988-14.142-0.114c-3.937,3.873-3.988,10.204-0.115,14.142l0.399,0.41
			c1.961,2.02,4.566,3.033,7.175,3.033c2.51,0,5.023-0.939,6.966-2.826C230.003,278.589,230.096,272.258,226.248,268.296z"/>
	</g>
</g>
<g>
	<g>
		<path d="M248.738,303.304c-2.013-5.143-7.814-7.678-12.958-5.666c-5.143,2.014-7.679,7.814-5.666,12.957
			c3.905,9.974,5.885,20.518,5.885,31.337c0,47.421-38.58,86-86,86c-47.42,0-86-38.579-86-86c0-47.421,38.58-86,86-86
			c10.912,0,21.54,2.014,31.588,5.984c5.139,2.031,10.948-0.489,12.976-5.625c2.03-5.137-0.489-10.945-5.625-12.976
			c-12.399-4.898-25.5-7.383-38.938-7.383c-58.449,0-106,47.552-106,106c0,58.448,47.551,106,106,106c58.449,0,106-47.552,106-106
			C256,328.607,253.557,315.611,248.738,303.304z"/>
	</g>
</g>
<g>
	<g>
		<path d="M150,299.933c-23.159,0-42,18.841-42,42s18.841,42,42,42s42-18.841,42-42S173.159,299.933,150,299.933z M150,363.933
			c-12.131,0-22-9.869-22-22c0-12.131,9.869-22,22-22s22,9.869,22,22C172,354.064,162.131,363.933,150,363.933z"/>
	</g>
</g>
<g>
	<g>
		<path d="M448,235.933H300c-5.523,0-10,4.478-10,10v64c0,5.522,4.477,10,10,10h148c5.523,0,10-4.478,10-10v-64
			C458,240.411,453.523,235.933,448,235.933z M438,299.933H310v-44h128V299.933z"/>
	</g>
</g>
<g>
	<g>
		<path d="M448,389.921c-5.523,0-10,4.478-10,10v48.012c0,5.522,4.477,10,10,10s10-4.478,10-10v-48.012
			C458,394.398,453.523,389.921,448,389.921z"/>
	</g>
</g>
<g>
	<g>
		<path d="M300,389.921c-5.523,0-10,4.478-10,10v48.012c0,5.522,4.477,10,10,10s10-4.478,10-10v-48.012
			C310,394.398,305.523,389.921,300,389.921z"/>
	</g>
</g>
<g>
	<g>
		<path d="M337,389.921c-5.523,0-10,4.477-10,10v48.012c0,5.522,4.477,10,10,10s10-4.478,10-10v-48.012
			C347,394.399,342.523,389.921,337,389.921z"/>
	</g>
</g>
<g>
	<g>
		<path d="M374,389.921c-5.523,0-10,4.478-10,10v48.012c0,5.522,4.477,10,10,10s10-4.478,10-10v-48.012
			C384,394.398,379.523,389.921,374,389.921z"/>
	</g>
</g>
<g>
	<g>
		<path d="M411,389.921c-5.523,0-10,4.477-10,10v48.012c0,5.522,4.477,10,10,10s10-4.478,10-10v-48.012
			C421,394.399,416.523,389.921,411,389.921z"/>
	</g>
</g>
<g>
	<g>
		<path d="M482,171.933H303.765c-5.523,0-10,4.478-10,10c0,5.522,4.477,10,10,10H482c5.514,0,10,4.486,10,10v280
			c0,5.514-4.486,10-10,10H30c-5.514,0-10-4.486-10-10v-280c0-5.514,4.486-10,10-10h195.667c5.523,0,10-4.478,10-10
			c0-5.522-4.477-10-10-10h-72.673c-1.37-6.719-4.097-12.947-7.873-18.398l111.06-111.06c3.905-3.905,3.905-10.237,0-14.143
			c-3.905-3.904-10.237-3.904-14.143,0l-111.35,111.351c-7.729-4.9-16.879-7.75-26.688-7.75c-24.146,0-44.348,17.205-48.994,40H30
			c-16.542,0-30,13.458-30,30v280c0,16.542,13.458,30,30,30h452c16.542,0,30-13.458,30-30v-280
			C512,185.391,498.542,171.933,482,171.933z M104,151.933c13.038,0,24.159,8.359,28.287,20H75.713
			C79.841,160.292,90.962,151.933,104,151.933z"/>
	</g>
</g>
<g>
	<g>
		<path d="M266.889,171.933h-2.056c-5.523,0-10,4.478-10,10c0,5.522,4.477,10,10,10h2.056c5.523,0,10-4.478,10-10
			C276.889,176.411,272.412,171.933,266.889,171.933z"/>
	</g>
</g>
<g>
</g>
<g>
</g>
<g>
</g>
<g>
</g>
<g>
</g>
<g>
</g>
<g>
</g>
<g>
</g>
<g>
</g>
<g>
</g>
<g>
</g>
<g>
</g>
<g>
</g>
<g>
</g>
<g>
</g>
</svg>
