<svg width="512" height="248" viewBox="0 0 512 248" fill="none" xmlns="http://www.w3.org/2000/svg">
<path fill-rule="evenodd" clip-rule="evenodd" d="M379.5 1.896C374.844 4.051 370.576 8.31301 369.064 12.315C367.568 16.273 367.741 24.469 369.4 28.282C370.178 30.07 386.84 47.493 406.905 67.5L443.011 103.5L228.255 104L13.5 104.5L9.683 106.873C7.583 108.178 4.658 111.071 3.183 113.3C0.948 116.677 0.5 118.464 0.5 124C0.5 129.536 0.948 131.323 3.183 134.7C4.658 136.929 7.583 139.822 9.683 141.127L13.5 143.5L228.255 144L443.011 144.5L406.905 180.5C386.84 200.507 370.178 217.93 369.4 219.718C367.741 223.531 367.568 231.727 369.064 235.685C372.722 245.368 385.751 250.62 395.209 246.224C399.536 244.212 505.607 139.978 509.189 134.216C512.62 128.699 512.475 118.827 508.885 113.402C504.724 107.114 399.465 3.75201 395.211 1.77601C390.389 -0.463993 384.5 -0.418998 379.5 1.896Z" fill="black"/>
</svg>
